<svg width="157" height="41" viewBox="0 0 157 41" fill="none" xmlns="http://www.w3.org/2000/svg">
<path d="M49.3831 13.2373C49.3375 12.9819 49.301 12.7265 49.2737 12.4711C49.2554 12.2157 49.2463 11.9876 49.2463 11.7869C49.2463 11.5771 49.2554 11.3445 49.2737 11.0891C49.301 10.8246 49.3375 10.5646 49.3831 10.3092H62.3545C62.4731 10.7197 62.5324 11.1712 62.5324 11.6638C62.5324 12.2385 62.3773 12.6444 62.0672 12.8816C61.7661 13.1187 61.2918 13.2373 60.6441 13.2373H59.2485C59.0569 13.2373 58.7833 13.2327 58.4275 13.2236C58.0718 13.2145 57.7981 13.2099 57.6065 13.2099H54.1037C53.9122 13.2099 53.6385 13.2145 53.2827 13.2236C52.9361 13.2327 52.6625 13.2373 52.4618 13.2373H49.3831ZM54.1037 15.235C54.1037 14.861 54.1037 14.5281 54.1037 14.2362C54.1128 13.9351 54.1174 13.5931 54.1174 13.2099V11.7596H57.5792V13.2099C57.5792 13.5931 57.5837 13.9351 57.5929 14.2362C57.602 14.5281 57.6065 14.861 57.6065 15.235V29C57.3146 29.0547 57.0136 29.0867 56.7035 29.0958C56.3933 29.114 56.1105 29.1231 55.8551 29.1231C55.6088 29.1231 55.3261 29.114 55.0068 29.0958C54.6966 29.0867 54.3956 29.0547 54.1037 29V15.235ZM61.7185 25.2919C61.7185 24.2338 61.9602 23.3626 62.4437 22.6785C62.9271 21.9944 63.5702 21.4927 64.3729 21.1734C65.1757 20.845 66.0605 20.6808 67.0274 20.6808C67.5018 20.6808 68.0582 20.699 68.6967 20.7355C69.3353 20.7629 69.9191 20.8359 70.4481 20.9545V23.1711C69.9921 23.0707 69.4721 23.0069 68.8883 22.9795C68.3045 22.9522 67.78 22.9385 67.3148 22.9385C66.5759 22.9385 66.0149 23.13 65.6318 23.5132C65.2578 23.8963 65.0708 24.4117 65.0708 25.0593C65.0708 25.5428 65.2076 25.9533 65.4813 26.2908C65.764 26.6192 66.1608 26.7834 66.6717 26.7834C67.292 26.7834 67.9396 26.5644 68.6146 26.1266C69.2897 25.6887 69.8552 25.0593 70.3113 24.2384L70.8176 26.6329C70.471 27.0342 70.0605 27.4447 69.5861 27.8643C69.1209 28.2839 68.5736 28.6397 67.9442 28.9316C67.3239 29.2235 66.6124 29.3694 65.8096 29.3694C64.8883 29.3694 64.1221 29.1688 63.5109 28.7674C62.9089 28.3569 62.4573 27.8415 62.1563 27.2212C61.8644 26.5918 61.7185 25.9487 61.7185 25.2919ZM73.5405 27.4538C73.4584 27.764 73.3033 28.0924 73.0753 28.439C72.8563 28.7856 72.6237 29.041 72.3774 29.2052C71.7115 29.1323 71.1688 28.9316 70.7492 28.6032C70.3296 28.2748 70.0103 27.8826 69.7914 27.4265C69.5816 26.9612 69.4493 26.4869 69.3946 26.0034V19.9693C69.3946 19.2122 69.2167 18.6649 68.8609 18.3273C68.5143 17.9898 68.0035 17.8211 67.3284 17.8211C66.6808 17.8211 65.9966 17.9214 65.276 18.1221C64.5645 18.3137 63.853 18.5371 63.1415 18.7926C62.8861 18.5189 62.6763 18.154 62.5121 17.6979C62.357 17.2327 62.2612 16.7903 62.2247 16.3707C62.7812 16.1335 63.4015 15.9237 64.0856 15.7413C64.7697 15.5497 65.463 15.3992 66.1654 15.2897C66.8769 15.1803 67.5337 15.1255 68.1357 15.1255C68.9932 15.1255 69.7731 15.2852 70.4755 15.6044C71.1779 15.9237 71.7343 16.4209 72.1448 17.0959C72.5644 17.7709 72.7742 18.6557 72.7742 19.7504V25.333C72.7742 25.8073 72.8244 26.2178 72.9248 26.5644C73.0342 26.9111 73.2395 27.2075 73.5405 27.4538ZM75.3539 28.0285C75.3721 27.6454 75.4816 27.2258 75.6823 26.7697C75.883 26.3045 76.1201 25.9442 76.3938 25.6887C76.9776 25.9989 77.5933 26.2725 78.241 26.5097C78.8978 26.7469 79.5545 26.8655 80.2113 26.8655C80.8681 26.8655 81.3789 26.7332 81.7438 26.4687C82.1178 26.2041 82.3094 25.8666 82.3185 25.4561C82.3185 25.1186 82.1908 24.813 81.9354 24.5394C81.6891 24.2657 81.3059 24.0331 80.786 23.8415L79.2262 23.2669C78.5967 23.0388 78.0175 22.7515 77.4884 22.4048C76.9685 22.0491 76.5489 21.6204 76.2296 21.1187C75.9195 20.6078 75.7644 19.9967 75.7644 19.2851C75.7644 18.4186 75.9787 17.6706 76.4075 17.0412C76.8362 16.4026 77.4291 15.9146 78.1863 15.5771C78.9434 15.2304 79.8145 15.0571 80.7997 15.0571C81.5842 15.0571 82.4188 15.162 83.3037 15.3718C84.1885 15.5816 84.9137 15.8279 85.4792 16.1107C85.4975 16.5121 85.4154 16.9591 85.2329 17.4516C85.0505 17.9442 84.8133 18.3045 84.5214 18.5326C84.0106 18.3045 83.4268 18.0902 82.77 17.8895C82.1224 17.6888 81.4656 17.5885 80.7997 17.5885C80.298 17.5885 79.8966 17.7116 79.5956 17.9579C79.3037 18.1951 79.1577 18.5052 79.1577 18.8883C79.1577 19.2167 79.2763 19.4904 79.5135 19.7093C79.7507 19.9191 80.1155 20.1152 80.6081 20.2977L82.2911 20.9271C83.3219 21.292 84.1702 21.8119 84.8361 22.4869C85.502 23.162 85.835 24.0468 85.835 25.1414C85.835 26.455 85.3287 27.4903 84.3162 28.2474C83.3128 28.9954 81.9582 29.3694 80.2524 29.3694C79.2854 29.3694 78.3778 29.2372 77.5295 28.9726C76.6903 28.7081 75.9651 28.3934 75.3539 28.0285ZM91.9356 29C91.4613 29.0821 90.9049 29.1231 90.2663 29.1231C89.6734 29.1231 89.1215 29.0821 88.6107 29V9.05034L88.8023 8.87247H90.1021C90.8045 8.87247 91.2834 9.03666 91.5388 9.36505C91.8034 9.68432 91.9356 10.2225 91.9356 10.9796V29ZM98.9686 25.935C99.1876 26.5462 99.3928 27.0205 99.5844 27.3581C99.7851 27.6956 100.018 27.9601 100.282 28.1517C100.027 28.4344 99.6893 28.6807 99.2697 28.8905C98.8592 29.0912 98.4396 29.1916 98.0108 29.1916C97.4544 29.1916 97.0439 29.0547 96.7794 28.7811C96.5148 28.5074 96.2731 28.0741 96.0542 27.4812L95.069 24.9225C94.8227 24.2657 94.5536 23.8279 94.2617 23.6089C93.9789 23.39 93.573 23.2806 93.0439 23.2806C92.7247 23.2806 92.4237 23.2942 92.1409 23.3216C91.8672 23.3398 91.5708 23.3672 91.2515 23.4037L90.2253 23.5132V21.1187H94.1386C95.1237 21.1187 95.9447 21.3239 96.6015 21.7344C97.2674 22.1449 97.7782 22.8199 98.134 23.7595L98.9686 25.935ZM96.8341 20.0651C96.451 20.7675 95.9356 21.2828 95.2879 21.6112C94.6403 21.9396 93.8467 22.1038 92.9071 22.1038H90.5947V20.5303L92.6745 20.4756C92.8478 20.4756 92.9847 20.4436 93.085 20.3798C93.1853 20.3159 93.2811 20.2019 93.3723 20.0377L95.3837 16.6717C95.63 16.2339 95.9082 15.9009 96.2184 15.6729C96.5285 15.4448 96.939 15.3308 97.4498 15.3308C97.8056 15.3308 98.1249 15.3354 98.4076 15.3445C98.6904 15.3445 98.9914 15.3536 99.3107 15.3718L99.4749 15.5908L96.8341 20.0651ZM117.325 19.6546C117.325 20.7218 117.252 21.7481 117.106 22.7332C116.969 23.7093 116.686 24.6215 116.257 25.4698C115.838 26.3182 115.208 27.0798 114.369 27.7549C113.959 28.0832 113.466 28.3523 112.891 28.5621C112.317 28.7628 111.728 28.9088 111.126 29C110.533 29.0912 109.991 29.1368 109.498 29.1368C108.741 29.1368 108.029 29.1323 107.364 29.1231C106.698 29.114 106.023 29.1003 105.338 29.0821C104.663 29.0639 103.929 29.0456 103.136 29.0274L102.958 28.8495V10.4597L103.136 10.2818C103.92 10.2544 104.65 10.2316 105.325 10.2134C106.009 10.1951 106.684 10.186 107.35 10.186C108.025 10.186 108.741 10.186 109.498 10.186C109.991 10.186 110.538 10.2316 111.14 10.3229C111.742 10.4141 112.33 10.56 112.905 10.7607C113.48 10.9614 113.968 11.2259 114.369 11.5543C115.199 12.2293 115.824 12.9956 116.244 13.853C116.672 14.7014 116.96 15.6181 117.106 16.6033C117.252 17.5793 117.325 18.5964 117.325 19.6546ZM113.726 19.6546C113.726 18.8792 113.676 18.0993 113.576 17.3148C113.484 16.5303 113.293 15.8097 113.001 15.1529C112.709 14.487 112.28 13.9534 111.715 13.552C111.158 13.1506 110.415 12.95 109.484 12.95C108.964 12.95 108.467 12.9454 107.993 12.9363C107.528 12.9272 107.008 12.9226 106.433 12.9226V26.3729C107.008 26.3638 107.528 26.3638 107.993 26.3729C108.467 26.3729 108.964 26.3729 109.484 26.3729C110.415 26.3729 111.158 26.1722 111.715 25.7708C112.28 25.3604 112.709 24.8267 113.001 24.1699C113.293 23.504 113.484 22.7788 113.576 21.9944C113.676 21.2008 113.726 20.4208 113.726 19.6546ZM131.576 25.1414C131.576 25.634 131.635 26.0947 131.754 26.5234C131.873 26.943 132.069 27.2668 132.342 27.4949C132.26 27.7959 132.105 28.1152 131.877 28.4527C131.658 28.7902 131.426 29.041 131.179 29.2052C130.158 29.0958 129.4 28.6762 128.908 27.9464C128.415 27.2075 128.169 26.3501 128.169 25.374V15.4266C128.652 15.3445 129.218 15.3034 129.866 15.3034C130.495 15.3034 131.065 15.3445 131.576 15.4266V25.1414ZM120.397 18.5326C120.397 18.0309 120.356 17.5611 120.274 17.1232C120.201 16.6763 120.064 16.2886 119.863 15.9602C120.11 15.7504 120.42 15.5771 120.794 15.4403C121.168 15.3034 121.569 15.235 121.998 15.235C122.664 15.235 123.129 15.4174 123.394 15.7823C123.667 16.1472 123.804 16.6763 123.804 17.3695V23.8826C123.804 24.6762 123.905 25.26 124.105 25.634C124.315 25.9989 124.712 26.1813 125.296 26.1813C125.688 26.1813 126.117 26.0855 126.582 25.894C127.047 25.7024 127.499 25.4151 127.936 25.032C128.374 24.6488 128.735 24.1836 129.017 23.6363V26.756C128.397 27.4219 127.667 28.0057 126.828 28.5074C125.998 29 125.09 29.2463 124.105 29.2463C123.266 29.2463 122.573 29.0456 122.025 28.6442C121.478 28.2338 121.068 27.6773 120.794 26.9749C120.529 26.2725 120.397 25.4835 120.397 24.6078V18.5326ZM136.019 13.3741C136.019 12.617 136.151 12.0788 136.416 11.7596C136.689 11.4312 137.173 11.267 137.866 11.267H139.166L139.344 11.4448V25.2646C139.344 25.6386 139.431 25.935 139.604 26.154C139.786 26.3729 140.087 26.4823 140.507 26.4823H142.258C142.432 27.0023 142.518 27.5587 142.518 28.1517C142.518 28.2702 142.514 28.398 142.505 28.5348C142.505 28.6625 142.486 28.7856 142.45 28.9042C141.976 28.959 141.451 29.0091 140.876 29.0547C140.302 29.1003 139.745 29.1231 139.207 29.1231C138.149 29.1231 137.351 28.8632 136.813 28.3432C136.283 27.8141 136.019 27.0069 136.019 25.9213V13.3741ZM142.682 15.3992C142.783 15.8188 142.833 16.2247 142.833 16.617C142.833 17.0548 142.783 17.4744 142.682 17.8758L137.948 17.7937L133.966 17.8758C133.866 17.4744 133.816 17.0548 133.816 16.617C133.816 16.2247 133.866 15.8188 133.966 15.3992L138.017 15.4813L142.682 15.3992ZM152.95 28.6032C152.585 29.9259 152.156 31.0661 151.664 32.0239C151.18 32.9817 150.542 33.7115 149.748 34.2132C148.954 34.724 147.91 34.9794 146.615 34.9794C146.131 34.9794 145.607 34.9247 145.041 34.8152C144.476 34.7149 144.033 34.61 143.714 34.5005C143.677 34.0992 143.728 33.6567 143.864 33.1733C144.01 32.6898 144.197 32.3204 144.425 32.065C144.672 32.1471 145 32.2292 145.411 32.3113C145.821 32.3934 146.222 32.4344 146.615 32.4344C147.171 32.4344 147.641 32.3158 148.024 32.0787C148.407 31.8415 148.731 31.504 148.995 31.0661C149.26 30.6283 149.483 30.1083 149.666 29.5063L149.762 29.1505C149.123 29.1414 148.603 29.0274 148.202 28.8084C147.81 28.5804 147.527 28.1745 147.353 27.5907L143.933 15.7002C144.298 15.536 144.663 15.4129 145.027 15.3308C145.401 15.2487 145.73 15.2076 146.013 15.2076C146.414 15.2076 146.756 15.3125 147.039 15.5224C147.322 15.7322 147.54 16.1244 147.696 16.6991L149.31 22.5827C149.42 22.9567 149.525 23.3809 149.625 23.8552C149.734 24.3296 149.835 24.7948 149.926 25.2509C150.026 25.707 150.108 26.1038 150.172 26.4413C150.2 26.569 150.277 26.6329 150.405 26.6329L153.169 15.4403C153.369 15.3855 153.597 15.349 153.853 15.3308C154.108 15.3034 154.345 15.2897 154.564 15.2897C154.856 15.2897 155.153 15.308 155.454 15.3445C155.764 15.3718 156.065 15.4357 156.357 15.536L156.48 15.7413L152.95 28.6032Z" fill="#2D0050"/>
<path d="M0 0H19.9542C30.9746 0 39.9084 8.93381 39.9084 19.9542C39.9084 30.9746 30.9746 39.9084 19.9542 39.9084H0V0Z" fill="url(#paint0_linear_5_2087)"/>
<path d="M16.0674 14.3567H7.42463V8.3732L31.5484 8.3732V14.3567H23.0006L23.0006 40H16.0674V14.3567Z" fill="#FAF9FB"/>
<defs>
<linearGradient id="paint0_linear_5_2087" x1="19.3841" y1="1.11655e-08" x2="3.99084" y2="39.9084" gradientUnits="userSpaceOnUse">
<stop stop-color="#974FD0"/>
<stop offset="0.666667" stop-color="#6A8FC6" stop-opacity="0.35"/>
<stop offset="1" stop-color="#2D0050"/>
</linearGradient>
</defs>
</svg>
